<?xml version="1.0" encoding="UTF-8"?>
<svg version="1.1" xmlns="http://www.w3.org/2000/svg" width="128" height="128">
<path d="M0 0 C0 1.65 0 3.3 0 5 C-0.87140625 5.08636719 -1.7428125 5.17273438 -2.640625 5.26171875 C-18.98102381 7.18931991 -31.28826826 13.471815 -42 26 C-42.495 27.485 -42.495 27.485 -43 29 C-42.24074219 28.77183594 -41.48148437 28.54367188 -40.69921875 28.30859375 C-39.70535156 28.02113281 -38.71148437 27.73367187 -37.6875 27.4375 C-36.20830078 27.00244141 -36.20830078 27.00244141 -34.69921875 26.55859375 C-32 26 -32 26 -29 27 C-29 28.32 -29 29.64 -29 31 C-35.435 32.98 -35.435 32.98 -42 35 C-40.65808594 35.61875 -40.65808594 35.61875 -39.2890625 36.25 C-19.12751632 45.7795901 -7.14655798 60.42058541 2.1875 80.5625 C3.06129212 83.18387636 3.1568157 85.25572524 3 88 C1.68 88 0.36 88 -1 88 C-1.4846875 86.90042969 -1.969375 85.80085938 -2.46875 84.66796875 C-6.5039064 75.69711475 -10.76075098 67.68109228 -17 60 C-17.48984375 59.34773438 -17.9796875 58.69546875 -18.484375 58.0234375 C-24.79643616 49.97378646 -34.99205359 43.24848135 -45 41 C-44.61328125 41.825 -44.2265625 42.65 -43.828125 43.5 C-38.64899253 54.9863928 -35.40701536 66.43437769 -34 79 C-35.65 79.33 -37.3 79.66 -39 80 C-39.24121582 78.98800537 -39.24121582 78.98800537 -39.48730469 77.95556641 C-40.23378418 74.84346038 -40.99181809 71.73427487 -41.75 68.625 C-42.00265625 67.56410156 -42.2553125 66.50320312 -42.515625 65.41015625 C-45.565701 52.94272106 -45.565701 52.94272106 -52 42 C-60.54897823 57.26603256 -62.02570544 74.66530698 -63.125 91.8125 C-63.21136719 93.08931641 -63.29773437 94.36613281 -63.38671875 95.68164062 C-63.59610021 98.78746564 -63.80045192 101.89353041 -64 105 C-65.32 105 -66.64 105 -68 105 C-68.5006489 83.23846123 -67.27812946 63.59739405 -60 43 C-68.55325266 48.37864115 -73.00653698 55.48868361 -78 64 C-79.32 63.67 -80.64 63.34 -82 63 C-80.51570998 52.70273801 -72.82405991 45.19182972 -65 39 C-72.59600478 39.9768128 -79.25595804 41.29690787 -86 45 C-86.75023438 45.40992188 -87.50046875 45.81984375 -88.2734375 46.2421875 C-96.82790263 51.40990193 -102.43413714 59.24876286 -107 68 C-108.32 68 -109.64 68 -111 68 C-109.8059769 57.93187925 -103.27536922 50.40253961 -95.74609375 44.0078125 C-85.96023001 36.85285665 -75.88866375 34.04576209 -64 33 C-72.96652258 28.13181223 -81.97536835 27.77216746 -92 28 C-92 26.68 -92 25.36 -92 24 C-86.04040205 21.02020103 -75.64100257 22.38451211 -69.3125 23.859375 C-66.4908888 24.8137435 -63.74613354 25.84884301 -61 27 C-60.01 27.33 -59.02 27.66 -58 28 C-64.6591915 17.6574432 -70.65131141 11.45099191 -82.265625 7.04296875 C-84.60418569 6.15097489 -86.78780353 5.16403671 -89 4 C-89 3.01 -89 2.02 -89 1 C-80.73132065 -0.15761511 -73.77555332 3.55316705 -67 8 C-61.37361335 12.58655302 -56.9820296 17.96272932 -53 24 C-52.01 21.03 -51.02 18.06 -50 15 C-48.68 15.33 -47.36 15.66 -46 16 C-46 17.98 -46 19.96 -46 22 C-45.61070313 21.50371094 -45.22140625 21.00742187 -44.8203125 20.49609375 C-33.75459124 7.0591465 -17.5900437 -1.03470845 0 0 Z " fill="#FFFFFF" transform="translate(111,20)"/>
<path d="M0 0 C1.32 0 2.64 0 4 0 C4.433125 0.61875 4.86625 1.2375 5.3125 1.875 C7.71502902 4.90040692 10.32578993 5.16810338 14 6 C13.7834375 6.8353125 13.7834375 6.8353125 13.5625 7.6875 C12.54250439 11.88081529 11.87618112 15.66633903 12 20 C11.37351562 19.97679688 10.74703125 19.95359375 10.1015625 19.9296875 C9.28429687 19.91164063 8.46703125 19.89359375 7.625 19.875 C6.81289063 19.85179688 6.00078125 19.82859375 5.1640625 19.8046875 C2.78657757 19.78629949 2.78657757 19.78629949 1 22 C-1.125 21.625 -1.125 21.625 -3 21 C-3 18.69 -3 16.38 -3 14 C-5.475 13.01 -5.475 13.01 -8 12 C-8 10.68 -8 9.36 -8 8 C-6.576875 7.4121875 -6.576875 7.4121875 -5.125 6.8125 C-1.65872662 4.80206144 -1.0197307 3.77300358 0 0 Z M2 9 C1.67 9.99 1.34 10.98 1 12 C1.66 12.66 2.32 13.32 3 14 C3.99 14 4.98 14 6 14 C6 12.68 6 11.36 6 10 C4.68 9.67 3.36 9.34 2 9 Z " fill="#FFFFFF" transform="translate(47,3)"/>
<path d="M0 0 C1.32 0 2.64 0 4 0 C4.20625 0.61875 4.4125 1.2375 4.625 1.875 C6.54775888 4.84653645 8.66594527 5.13024659 12 6 C11.125 9.875 11.125 9.875 10 11 C9.63239269 13.32817964 9.29758419 15.6618385 9 18 C6 19 6 19 3.5625 18.5 C0.93165749 17.98666488 -0.49324027 18.16441342 -3 19 C-4.42414432 16.34159726 -5.27197924 13.91208306 -6 11 C-6.63654342 9.6520257 -7.29605388 8.31403276 -8 7 C-6 5 -6 5 -4 4.625 C-1.79734983 4.17876824 -1.79734983 4.17876824 -0.75 1.9375 C-0.5025 1.298125 -0.255 0.65875 0 0 Z M0 9 C0.33 9.99 0.66 10.98 1 12 C1.66 12 2.32 12 3 12 C3.33 11.01 3.66 10.02 4 9 C2.68 9 1.36 9 0 9 Z " fill="#FFFFFF" transform="translate(87,98)"/>
<path d="M0 0 C1.9375 0.1875 1.9375 0.1875 4 1 C5.0625 2.9375 5.0625 2.9375 6 5 C6.99 5.66 7.98 6.32 9 7 C9 8.32 9 9.64 9 11 C8.01 11.66 7.02 12.32 6 13 C5.27034634 15.56282742 5.27034634 15.56282742 5 18 C4.154375 17.855625 3.30875 17.71125 2.4375 17.5625 C-1.03593149 16.9941203 -4.51445662 16.48797607 -8 16 C-7.96744792 14.01432292 -7.93489583 12.02864583 -7.90234375 10.04296875 C-7.91736783 7.79694539 -7.91736783 7.79694539 -9 5 C-8.67 4.34 -8.34 3.68 -8 3 C-5.67793475 2.29508733 -3.34406932 1.62787571 -1 1 C-0.67 0.67 -0.34 0.34 0 0 Z M-1 8 C-0.67 8.99 -0.34 9.98 0 11 C0.33 10.01 0.66 9.02 1 8 C0.34 8 -0.32 8 -1 8 Z " fill="#FFFFFF" transform="translate(119,28)"/>
<path d="M0 0 C14.83128373 -1.05103585 25.92787012 4.95191342 38 13 C38.1875 15.625 38.1875 15.625 38 18 C33.83901993 17.44072849 31.2998381 16.07466327 27.875 13.6875 C19.1372494 7.97165242 10.26003173 5.50824451 0 4 C0 2.68 0 1.36 0 0 Z " fill="#FFFFFF" transform="translate(90,46)"/>
<path d="M0 0 C1.65 0.33 3.3 0.66 5 1 C5 1.66 5 2.32 5 3 C6.65 3 8.3 3 10 3 C10.79953138 6.28696233 11.09658936 7.71023192 10 11 C9.96125079 12.66621616 9.9549714 14.33394172 10 16 C8.948125 15.979375 7.89625 15.95875 6.8125 15.9375 C3.66676527 15.98906942 1.05114124 16.37182386 -2 17 C-3 16 -3 16 -3.0625 13.4375 C-3.041875 12.633125 -3.02125 11.82875 -3 11 C-3.99 10.67 -4.98 10.34 -6 10 C-5.67 8.35 -5.34 6.7 -5 5 C-4.01 4.67 -3.02 4.34 -2 4 C-0.79117904 1.99983534 -0.79117904 1.99983534 0 0 Z M2 8 C2 8.66 2 9.32 2 10 C2.66 10 3.32 10 4 10 C4 9.34 4 8.68 4 8 C3.34 8 2.68 8 2 8 Z " fill="#FFFFFF" transform="translate(6,95)"/>
<path d="M0 0 C-0.1875 2.25 -0.1875 2.25 -1 5 C-1.70125 5.556875 -2.4025 6.11375 -3.125 6.6875 C-7.36082116 10.09457354 -10.0173826 14.49598986 -13 19 C-13.99 18.67 -14.98 18.34 -16 18 C-15.83631219 11.61617531 -12.14883743 7.5096059 -8 3 C-4.91398215 0.24267044 -4.36638741 0 0 0 Z " fill="#FFFFFF" transform="translate(81,10)"/>
<path d="M0 0 C0.375 2.25 0.375 2.25 0 5 C-2.75 7.0625 -2.75 7.0625 -6 9 C-6.70125 9.763125 -7.4025 10.52625 -8.125 11.3125 C-8.74375 11.869375 -9.3625 12.42625 -10 13 C-12.25 12.75 -12.25 12.75 -14 12 C-13.47113218 8.02004557 -11.63676763 6.35655405 -8.6875 3.75 C-7.90761719 3.04359375 -7.12773438 2.3371875 -6.32421875 1.609375 C-4 0 -4 0 0 0 Z " fill="#FFFFFF" transform="translate(14,47)"/>
<path d="M0 0 C1.32 0 2.64 0 4 0 C5.15957207 3.47871621 4.77456651 4.34219645 3.5625 7.6875 C3.27503906 8.49574219 2.98757812 9.30398437 2.69140625 10.13671875 C2.46324219 10.75160156 2.23507813 11.36648437 2 12 C0.68 11.67 -0.64 11.34 -2 11 C-1.125 3.375 -1.125 3.375 0 0 Z " fill="#FFFFFF" transform="translate(25,91)"/>
<path d="M0 0 C1.98 0.495 1.98 0.495 4 1 C3.67 2.32 3.34 3.64 3 5 C1.68 4.67 0.36 4.34 -1 4 C-0.67 2.68 -0.34 1.36 0 0 Z " fill="#FFFFFF" transform="translate(109,61)"/>
<path d="M0 0 C1.32 0 2.64 0 4 0 C4 1.32 4 2.64 4 4 C3.01 4.33 2.02 4.66 1 5 C0.34 3.68 -0.32 2.36 -1 1 C-0.67 0.67 -0.34 0.34 0 0 Z " fill="#FFFFFF" transform="translate(92,12)"/>
<path d="M0 0 C2.475 0.495 2.475 0.495 5 1 C4.67 1.99 4.34 2.98 4 4 C2.68 4 1.36 4 0 4 C0 2.68 0 1.36 0 0 Z " fill="#FFFFFF" transform="translate(23,116)"/>
<path d="M0 0 C0.99 0.33 1.98 0.66 3 1 C3 2.32 3 3.64 3 5 C1.68 5 0.36 5 -1 5 C-0.67 3.35 -0.34 1.7 0 0 Z " fill="#FFFFFF" transform="translate(119,86)"/>
<path d="M0 0 C0.99 0.33 1.98 0.66 3 1 C3 2.32 3 3.64 3 5 C1.68 5 0.36 5 -1 5 C-0.67 3.35 -0.34 1.7 0 0 Z " fill="#FFFFFF" transform="translate(12,29)"/>
<path d="M0 0 C1.32 0 2.64 0 4 0 C4 1.32 4 2.64 4 4 C2.68 4 1.36 4 0 4 C0 2.68 0 1.36 0 0 Z " fill="#FFFFFF" transform="translate(59,99)"/>
</svg>
