<?xml version="1.0" encoding="UTF-8"?>
<svg version="1.1" xmlns="http://www.w3.org/2000/svg" width="128" height="128">
<path d="M0 0 C1.67591763 0.40267875 3.3522058 0.80381807 5.02883911 1.20350647 C9.38844421 2.24739098 13.74241266 3.31312322 18.09558105 4.38348389 C21.66785504 5.25792034 25.24380287 6.11672176 28.82003593 6.97479916 C36.19490934 8.74449101 43.56750053 10.52388097 50.93310547 12.33178711 C51.61143433 12.49650513 52.28976318 12.66122314 52.98864746 12.83093262 C57.65145189 13.98197595 57.65145189 13.98197595 59.8828125 15.09765625 C59.8828125 19.38765625 59.8828125 23.67765625 59.8828125 28.09765625 C53.6128125 28.09765625 47.3428125 28.09765625 40.8828125 28.09765625 C40.8828125 38.65765625 40.8828125 49.21765625 40.8828125 60.09765625 C38.9028125 60.09765625 36.9228125 60.09765625 34.8828125 60.09765625 C35.2433837 63.34279702 35.91411579 64.12514207 38.4453125 66.34765625 C40.9708605 69.19699246 41.25451492 69.61366668 41.3203125 73.16015625 C40.93710589 76.60901571 40.49514882 78.19027067 38.8828125 81.09765625 C41.04489343 83.4350775 43.24126597 85.73732051 45.4453125 88.03515625 C46.05439453 88.69451172 46.66347656 89.35386719 47.29101562 90.03320312 C48.20463867 90.97583008 48.20463867 90.97583008 49.13671875 91.9375 C49.96151733 92.80942993 49.96151733 92.80942993 50.80297852 93.69897461 C53.44721957 95.69624228 53.44721957 95.69624228 59.8828125 96.09765625 C59.8828125 104.01765625 59.8828125 111.93765625 59.8828125 120.09765625 C52.06824176 120.12055796 44.2537865 120.14048728 36.43920898 120.15258789 C33.77839769 120.15763008 31.11758918 120.16446361 28.45678711 120.1730957 C24.64175734 120.18516634 20.82676406 120.19088554 17.01171875 120.1953125 C15.81382217 120.20047379 14.6159256 120.20563507 13.38172913 120.21095276 C11.73013039 120.21106606 11.73013039 120.21106606 10.04516602 120.21118164 C9.07031754 120.21340225 8.09546906 120.21562286 7.09107971 120.21791077 C4.8828125 120.09765625 4.8828125 120.09765625 3.8828125 119.09765625 C3.7836468 117.47508081 3.75201473 115.84825794 3.75 114.22265625 C3.74871094 113.2378125 3.74742188 112.25296875 3.74609375 111.23828125 C3.74996094 110.201875 3.75382812 109.16546875 3.7578125 108.09765625 C3.75394531 107.06125 3.75007813 106.02484375 3.74609375 104.95703125 C3.74738281 103.9721875 3.74867187 102.98734375 3.75 101.97265625 C3.75112793 101.06257813 3.75225586 100.1525 3.75341797 99.21484375 C3.8828125 97.09765625 3.8828125 97.09765625 4.8828125 96.09765625 C6.41615234 96.03771484 6.41615234 96.03771484 7.98046875 95.9765625 C13.16965225 95.29890526 15.91628019 91.7201563 19.3203125 88.03515625 C19.95646484 87.37193359 20.59261719 86.70871094 21.24804688 86.02539062 C22.80748862 84.39559812 24.35116189 82.75352057 25.8828125 81.09765625 C25.39167969 80.16695313 24.90054688 79.23625 24.39453125 78.27734375 C22.90645653 75.14738815 22.58387051 73.48566543 22.8828125 70.09765625 C24.5328125 70.09765625 26.1828125 70.09765625 27.8828125 70.09765625 C28.1096875 70.90203125 28.3365625 71.70640625 28.5703125 72.53515625 C29.0034375 73.38078125 29.4365625 74.22640625 29.8828125 75.09765625 C32.43056556 75.99151789 32.43056556 75.99151789 34.8828125 76.09765625 C34.8828125 74.44765625 34.8828125 72.79765625 34.8828125 71.09765625 C33.2328125 70.43765625 31.5828125 69.77765625 29.8828125 69.09765625 C29.8828125 66.12765625 29.8828125 63.15765625 29.8828125 60.09765625 C28.9134375 60.11828125 27.9440625 60.13890625 26.9453125 60.16015625 C23.8828125 60.09765625 23.8828125 60.09765625 22.8828125 59.09765625 C22.79490275 56.80614208 22.77587212 54.51193101 22.78515625 52.21875 C22.78765381 50.96247803 22.79015137 49.70620605 22.79272461 48.41186523 C22.80182861 46.80255127 22.81093262 45.1932373 22.8203125 43.53515625 C22.8409375 38.44078125 22.8615625 33.34640625 22.8828125 28.09765625 C9.3528125 28.09765625 -4.1771875 28.09765625 -18.1171875 28.09765625 C-18.0965625 34.55328125 -18.0759375 41.00890625 -18.0546875 47.66015625 C-18.07196899 50.69698608 -18.07196899 50.69698608 -18.08959961 53.79516602 C-18.06897726 55.41816855 -18.04578994 57.04114137 -18.01953125 58.6640625 C-18.03375122 59.49192261 -18.04797119 60.31978271 -18.06262207 61.17272949 C-17.95415761 65.9586802 -17.95415761 65.9586802 -15.52284241 69.93882751 C-14.24856479 71.07646359 -12.9711051 72.2105459 -11.69041443 73.34095764 C-8.90757793 76.44833199 -9.24172244 79.66615584 -9.43359375 83.65625 C-9.44349838 84.44540298 -9.45340302 85.23455597 -9.46360779 86.04762268 C-9.50250861 88.54543335 -9.59026134 91.03869597 -9.6796875 93.53515625 C-9.71483382 95.2375663 -9.74676702 96.94004591 -9.77539062 98.64257812 C-9.85218774 102.7959985 -9.97278136 106.946059 -10.1171875 111.09765625 C-8.7971875 111.09765625 -7.4771875 111.09765625 -6.1171875 111.09765625 C-6.1171875 115.38765625 -6.1171875 119.67765625 -6.1171875 124.09765625 C-20.3071875 124.09765625 -34.4971875 124.09765625 -49.1171875 124.09765625 C-49.1171875 119.80765625 -49.1171875 115.51765625 -49.1171875 111.09765625 C-47.7971875 111.09765625 -46.4771875 111.09765625 -45.1171875 111.09765625 C-45.15908203 110.04900391 -45.20097656 109.00035156 -45.24414062 107.91992188 C-45.38982164 103.99926179 -45.48109004 100.07883617 -45.55664062 96.15625 C-45.59667598 94.46443352 -45.65112584 92.77289045 -45.72070312 91.08203125 C-46.30189834 76.58633894 -46.30189834 76.58633894 -43.3359375 72.859375 C-42.253125 72.03373047 -42.253125 72.03373047 -41.1484375 71.19140625 C-38.80890323 69.37499765 -37.35324157 68.06917955 -36.64233398 65.14331055 C-35.9172965 59.15200963 -36.04940488 53.12170225 -36.1171875 47.09765625 C-36.10908803 45.25518887 -36.09740384 43.41273355 -36.08203125 41.5703125 C-36.04563236 37.07707183 -36.08313107 32.59310513 -36.1171875 28.09765625 C-46.6771875 28.09765625 -57.2371875 28.09765625 -68.1171875 28.09765625 C-68.1171875 23.80765625 -68.1171875 19.51765625 -68.1171875 15.09765625 C-64.7216811 13.19524592 -61.32611827 11.2929368 -57.93041992 9.39086914 C-56.21852607 8.43191257 -54.50672292 7.4727941 -52.79492188 6.51367188 C-50.58208244 5.27422222 -48.36414134 4.04383542 -46.14111328 2.82275391 C-43.19473737 1.20132784 -43.19473737 1.20132784 -40.85498047 -0.47509766 C-29.19019707 -8.3357254 -12.59566793 -3.13035395 0 0 Z M-29.1171875 1.09765625 C-29.1171875 5.71765625 -29.1171875 10.33765625 -29.1171875 15.09765625 C-28.1271875 15.09765625 -27.1371875 15.09765625 -26.1171875 15.09765625 C-26.1171875 10.47765625 -26.1171875 5.85765625 -26.1171875 1.09765625 C-27.1071875 1.09765625 -28.0971875 1.09765625 -29.1171875 1.09765625 Z M-21.1171875 2.09765625 C-21.1171875 6.38765625 -21.1171875 10.67765625 -21.1171875 15.09765625 C-2.9671875 15.09765625 15.1828125 15.09765625 33.8828125 15.09765625 C30.77652974 13.54451487 28.56568521 12.65058701 25.28540039 11.86083984 C24.38088638 11.64076263 23.47637238 11.42068542 22.54444885 11.19393921 C21.57458542 10.96365021 20.60472198 10.73336121 19.60546875 10.49609375 C18.60196884 10.25476715 17.59846893 10.01344055 16.56455994 9.76480103 C14.44442446 9.25643656 12.32368487 8.75058585 10.20239258 8.24707031 C6.95916359 7.47594953 3.71878958 6.69358948 0.47851562 5.91015625 C-1.58317046 5.41728694 -3.64501439 4.92507733 -5.70703125 4.43359375 C-6.67487045 4.19925629 -7.64270966 3.96491882 -8.63987732 3.72348022 C-9.54754349 3.50970734 -10.45520966 3.29593445 -11.39038086 3.07568359 C-12.18439804 2.88630219 -12.97841522 2.69692078 -13.79649353 2.50180054 C-16.54556111 1.95468469 -16.54556111 1.95468469 -21.1171875 2.09765625 Z M-40.46875 5.46875 C-41.31953125 5.96052734 -42.1703125 6.45230469 -43.046875 6.95898438 C-43.93632813 7.47912109 -44.82578125 7.99925781 -45.7421875 8.53515625 C-46.639375 9.05142578 -47.5365625 9.56769531 -48.4609375 10.09960938 C-51.82581667 12.03903959 -51.82581667 12.03903959 -55.1171875 14.09765625 C-55.1171875 14.42765625 -55.1171875 14.75765625 -55.1171875 15.09765625 C-48.1871875 15.09765625 -41.2571875 15.09765625 -34.1171875 15.09765625 C-34.1171875 11.13765625 -34.1171875 7.17765625 -34.1171875 3.09765625 C-36.79961479 3.09765625 -38.14880193 4.12651133 -40.46875 5.46875 Z M-63.1171875 20.09765625 C-63.1171875 21.08765625 -63.1171875 22.07765625 -63.1171875 23.09765625 C-54.2071875 23.09765625 -45.2971875 23.09765625 -36.1171875 23.09765625 C-36.1171875 22.10765625 -36.1171875 21.11765625 -36.1171875 20.09765625 C-45.0271875 20.09765625 -53.9371875 20.09765625 -63.1171875 20.09765625 Z M-31.1171875 20.09765625 C-31.1171875 21.08765625 -31.1171875 22.07765625 -31.1171875 23.09765625 C-28.8071875 23.09765625 -26.4971875 23.09765625 -24.1171875 23.09765625 C-24.1171875 22.10765625 -24.1171875 21.11765625 -24.1171875 20.09765625 C-26.4271875 20.09765625 -28.7371875 20.09765625 -31.1171875 20.09765625 Z M-18.1171875 20.09765625 C-18.1171875 21.08765625 -18.1171875 22.07765625 -18.1171875 23.09765625 C-4.5871875 23.09765625 8.9428125 23.09765625 22.8828125 23.09765625 C22.8828125 22.10765625 22.8828125 21.11765625 22.8828125 20.09765625 C9.3528125 20.09765625 -4.1771875 20.09765625 -18.1171875 20.09765625 Z M27.8828125 20.09765625 C27.8828125 21.08765625 27.8828125 22.07765625 27.8828125 23.09765625 C30.5228125 23.09765625 33.1628125 23.09765625 35.8828125 23.09765625 C35.8828125 22.10765625 35.8828125 21.11765625 35.8828125 20.09765625 C33.2428125 20.09765625 30.6028125 20.09765625 27.8828125 20.09765625 Z M40.8828125 20.09765625 C40.8828125 21.08765625 40.8828125 22.07765625 40.8828125 23.09765625 C45.5028125 23.09765625 50.1228125 23.09765625 54.8828125 23.09765625 C54.8828125 22.10765625 54.8828125 21.11765625 54.8828125 20.09765625 C50.2628125 20.09765625 45.6428125 20.09765625 40.8828125 20.09765625 Z M27.8828125 28.09765625 C27.8828125 34.36765625 27.8828125 40.63765625 27.8828125 47.09765625 C30.5228125 47.09765625 33.1628125 47.09765625 35.8828125 47.09765625 C35.8828125 40.82765625 35.8828125 34.55765625 35.8828125 28.09765625 C33.2428125 28.09765625 30.6028125 28.09765625 27.8828125 28.09765625 Z M-25.1171875 31.09765625 C-26.80806972 33.07722567 -28.47549222 35.07710821 -30.1171875 37.09765625 C-28.1371875 38.74765625 -26.1571875 40.39765625 -24.1171875 42.09765625 C-24.1171875 38.46765625 -24.1171875 34.83765625 -24.1171875 31.09765625 C-24.4471875 31.09765625 -24.7771875 31.09765625 -25.1171875 31.09765625 Z M-31.1171875 44.09765625 C-31.1171875 47.72765625 -31.1171875 51.35765625 -31.1171875 55.09765625 C-29.1371875 53.44765625 -27.1571875 51.79765625 -25.1171875 50.09765625 C-26.75888278 48.07710821 -28.42630528 46.07722567 -30.1171875 44.09765625 C-30.4471875 44.09765625 -30.7771875 44.09765625 -31.1171875 44.09765625 Z M27.8828125 52.09765625 C27.8828125 53.08765625 27.8828125 54.07765625 27.8828125 55.09765625 C30.5228125 55.09765625 33.1628125 55.09765625 35.8828125 55.09765625 C35.8828125 54.10765625 35.8828125 53.11765625 35.8828125 52.09765625 C33.2428125 52.09765625 30.6028125 52.09765625 27.8828125 52.09765625 Z M-25.1171875 57.09765625 C-26.80806972 59.07722567 -28.47549222 61.07710821 -30.1171875 63.09765625 C-28.1371875 64.74765625 -26.1571875 66.39765625 -24.1171875 68.09765625 C-24.1171875 64.46765625 -24.1171875 60.83765625 -24.1171875 57.09765625 C-24.4471875 57.09765625 -24.7771875 57.09765625 -25.1171875 57.09765625 Z M-31.1171875 69.09765625 C-31.1171875 72.72765625 -31.1171875 76.35765625 -31.1171875 80.09765625 C-29.1371875 78.44765625 -27.1571875 76.79765625 -25.1171875 75.09765625 C-26.75888278 73.07710821 -28.42630528 71.07722567 -30.1171875 69.09765625 C-30.4471875 69.09765625 -30.7771875 69.09765625 -31.1171875 69.09765625 Z M-38.66137695 76.12817383 C-40.84878358 79.08739054 -40.48760338 82.07635012 -40.41015625 85.609375 C-40.40591141 86.33759964 -40.40166656 87.06582428 -40.39729309 87.81611633 C-40.38051483 90.13950752 -40.34286605 92.46202775 -40.3046875 94.78515625 C-40.28963947 96.36131559 -40.27595127 97.93748854 -40.26367188 99.51367188 C-40.23061435 103.37533502 -40.17883944 107.23634803 -40.1171875 111.09765625 C-38.7971875 111.09765625 -37.4771875 111.09765625 -36.1171875 111.09765625 C-36.1171875 99.21765625 -36.1171875 87.33765625 -36.1171875 75.09765625 C-37.28796827 75.00514047 -37.28796827 75.00514047 -38.66137695 76.12817383 Z M-18.1171875 76.09765625 C-18.1171875 87.64765625 -18.1171875 99.19765625 -18.1171875 111.09765625 C-17.1271875 111.09765625 -16.1371875 111.09765625 -15.1171875 111.09765625 C-15.04312863 106.43460587 -14.98862987 101.77189641 -14.95239258 97.10839844 C-14.93728936 95.52142374 -14.91680527 93.93449088 -14.89086914 92.34765625 C-14.85455155 90.06890552 -14.83747727 87.79070567 -14.82421875 85.51171875 C-14.80873489 84.8002066 -14.79325104 84.08869446 -14.77729797 83.35562134 C-14.74172242 81.14011221 -14.74172242 81.14011221 -15.1171875 78.09765625 C-16.1071875 77.43765625 -17.0971875 76.77765625 -18.1171875 76.09765625 Z M-25.1171875 82.09765625 C-26.80806972 84.07722567 -28.47549222 86.07710821 -30.1171875 88.09765625 C-28.1371875 89.74765625 -26.1571875 91.39765625 -24.1171875 93.09765625 C-24.1171875 89.46765625 -24.1171875 85.83765625 -24.1171875 82.09765625 C-24.4471875 82.09765625 -24.7771875 82.09765625 -25.1171875 82.09765625 Z M31.8828125 83.09765625 C29.87979396 85.07384865 27.88031383 87.05340099 25.8828125 89.03515625 C25.31046875 89.59912109 24.738125 90.16308594 24.1484375 90.74414062 C22.70755745 92.17644401 21.29294107 93.63506754 19.8828125 95.09765625 C19.8828125 95.42765625 19.8828125 95.75765625 19.8828125 96.09765625 C28.1328125 96.09765625 36.3828125 96.09765625 44.8828125 96.09765625 C40.17549074 90.47345127 40.17549074 90.47345127 35.0078125 85.66015625 C33.96614583 84.80598958 32.92447917 83.95182292 31.8828125 83.09765625 Z M-31.1171875 95.09765625 C-31.1171875 98.72765625 -31.1171875 102.35765625 -31.1171875 106.09765625 C-29.1371875 104.44765625 -27.1571875 102.79765625 -25.1171875 101.09765625 C-26.75888278 99.07710821 -28.42630528 97.07722567 -30.1171875 95.09765625 C-30.4471875 95.09765625 -30.7771875 95.09765625 -31.1171875 95.09765625 Z M8.8828125 101.09765625 C8.8828125 105.71765625 8.8828125 110.33765625 8.8828125 115.09765625 C24.0628125 115.09765625 39.2428125 115.09765625 54.8828125 115.09765625 C54.8828125 110.47765625 54.8828125 105.85765625 54.8828125 101.09765625 C39.7028125 101.09765625 24.5228125 101.09765625 8.8828125 101.09765625 Z M-25.1171875 108.09765625 C-26.1071875 109.58265625 -26.1071875 109.58265625 -27.1171875 111.09765625 C-26.1271875 111.09765625 -25.1371875 111.09765625 -24.1171875 111.09765625 C-24.4471875 110.10765625 -24.7771875 109.11765625 -25.1171875 108.09765625 Z M-44.1171875 116.09765625 C-44.1171875 117.08765625 -44.1171875 118.07765625 -44.1171875 119.09765625 C-33.2271875 119.09765625 -22.3371875 119.09765625 -11.1171875 119.09765625 C-11.1171875 118.10765625 -11.1171875 117.11765625 -11.1171875 116.09765625 C-22.0071875 116.09765625 -32.8971875 116.09765625 -44.1171875 116.09765625 Z " fill="#FFFFFF" transform="translate(68.1171875,3.90234375)"/>
</svg>
