<?xml version="1.0" encoding="UTF-8"?>
<svg version="1.1" xmlns="http://www.w3.org/2000/svg" width="128" height="128">
<path d="M0 0 C4.25943799 1.42494761 7.05651685 3.50668937 10.4375 6.4375 C11.49982689 7.3454788 12.56369052 8.25166204 13.62890625 9.15625 C14.18078613 9.62546875 14.73266602 10.0946875 15.30126953 10.578125 C18.1091615 12.92839273 20.98900913 15.18432044 23.875 17.4375 C24.45950928 17.89439209 25.04401855 18.35128418 25.64624023 18.82202148 C26.83636301 19.75147397 28.02687504 20.68042824 29.21777344 21.60888672 C32.15105399 23.89845282 35.07506535 26.19978879 38 28.5 C39.15361204 29.40629301 40.30725799 30.31254287 41.4609375 31.21875 C43.92543264 33.15504053 46.38879352 35.0927645 48.8515625 37.03125 C49.48320313 37.52818359 50.11484375 38.02511719 50.765625 38.53710938 C51.97164269 39.48596152 53.17738849 40.43515938 54.3828125 41.38476562 C57.23028308 43.62446241 60.0898515 45.84223136 63 48 C63.56847656 47.68675781 64.13695313 47.37351563 64.72265625 47.05078125 C67.04035927 45.98137797 68.91491774 45.51539197 71.4375 45.1875 C72.17871094 45.07792969 72.91992188 44.96835938 73.68359375 44.85546875 C79.31836582 45.20704812 82.68855825 49.5428425 86.25 53.5 C86.72381104 54.02537354 87.19762207 54.55074707 87.68579102 55.09204102 C92.30007476 60.24999936 96.6844517 65.59060976 101 71 C101.73734375 71.87269531 102.4746875 72.74539062 103.234375 73.64453125 C105.27950816 76.37288367 105.46271867 77.66842558 105 81 C103.10877886 82.89122114 99.80408428 82.12782618 97.29296875 82.12939453 C96.59217194 82.13114685 95.89137512 82.13289917 95.16934204 82.13470459 C92.84203651 82.13912266 90.51480636 82.13618529 88.1875 82.1328125 C86.57706691 82.13348555 84.96663391 82.13445559 83.35620117 82.13571167 C79.97671545 82.13718858 76.5972561 82.13503431 73.21777344 82.13037109 C68.87623495 82.1246738 64.53475827 82.12795285 60.19322205 82.13394356 C56.86649099 82.13754936 53.5397747 82.1364105 50.21304321 82.13381577 C48.61178582 82.13314655 47.0105271 82.13397474 45.40927124 82.13629532 C43.17515489 82.13882216 40.94114 82.13498085 38.70703125 82.12939453 C36.79627808 82.12820114 36.79627808 82.12820114 34.84692383 82.12698364 C32 82 32 82 31 81 C30.54296875 78.796875 30.54296875 78.796875 31 76 C33.06079265 73.8459452 34.99654006 72.08614637 37.3125 70.25 C37.94244873 69.73066895 38.57239746 69.21133789 39.22143555 68.67626953 C41.13601691 67.10256821 43.06583191 65.54953239 45 64 C47.10674963 62.29481973 49.20962758 60.58496731 51.3125 58.875 C52.19550781 58.17117187 53.07851562 57.46734375 53.98828125 56.7421875 C56.08336136 55.15274106 56.08336136 55.15274106 57 53 C56.23558594 52.41734375 55.47117188 51.8346875 54.68359375 51.234375 C48.64902309 46.62054635 42.66568433 41.95295611 36.75 37.1875 C31.41706035 32.89332786 26.01723264 28.70070183 20.5625 24.5625 C12.2191188 18.23018624 4.08946337 11.65230433 -4 5 C-2.68 3.35 -1.36 1.7 0 0 Z " fill="#FFFFFF" transform="translate(23,43)"/>
<path d="M0 0 C4.10290973 2.32269005 7.76437063 5.06263723 11.4375 8 C12.67028293 8.98083333 13.90336516 9.96129059 15.13671875 10.94140625 C16.08490479 11.69574951 16.08490479 11.69574951 17.05224609 12.46533203 C19.00650412 14.00512471 20.97817036 15.51933722 22.95703125 17.02734375 C23.59261963 17.51525391 24.22820801 18.00316406 24.88305664 18.50585938 C26.10304423 19.44139059 27.32733686 20.37134145 28.55639648 21.29492188 C32.63175166 24.43993626 34.59495841 26.61901518 35.46166992 31.71386719 C35.75319238 35.05750531 35.98273229 38.39992642 36.1875 41.75 C36.35862305 43.4825 36.35862305 43.4825 36.53320312 45.25 C37.02197505 53.7284992 37.02197505 53.7284992 34.01416016 57.47070312 C31.55078125 59.578125 31.55078125 59.578125 29.05981445 61.32519531 C26.77173793 63.18559651 26.34681469 64.12650479 26 67 C25.34 67 24.68 67 24 67 C22.53869378 64.07738756 22.798233 61.40981376 22.7109375 58.1484375 C22.59009435 35.93791284 22.59009435 35.93791284 14 16 C11.41839876 14.12198822 11.41839876 14.12198822 9 13 C8.89042969 14.2065625 8.78085937 15.413125 8.66796875 16.65625 C8.50838226 18.27088975 8.34819381 19.88547008 8.1875 21.5 C8.11724609 22.29148437 8.04699219 23.08296875 7.97460938 23.8984375 C6.91059726 34.28319575 2.43265744 42.13893115 -2.8425293 50.97436523 C-3.94182091 52.81975353 -5.02503636 54.67395358 -6.10742188 56.52929688 C-6.80894915 57.71410271 -7.51139124 58.89836747 -8.21484375 60.08203125 C-8.84511475 61.14655518 -9.47538574 62.2110791 -10.12475586 63.30786133 C-11.91754658 65.8816282 -13.32815761 67.39770843 -16 69 C-18.84547976 69.41641167 -20.32331087 69.39667983 -22.8125 67.9375 C-24.64935993 64.94051802 -24.65397012 62.35665094 -24 59 C-22.22015363 54.98625334 -20.0012781 51.26498543 -17.75 47.5 C-16.87021484 45.98986328 -16.87021484 45.98986328 -15.97265625 44.44921875 C-11.38545678 36.58397562 -11.38545678 36.58397562 -9.74047852 34.09179688 C-6.54037831 29.11957056 -6.04291004 24.24530067 -5.4375 18.5 C-3.82932883 3.82932883 -3.82932883 3.82932883 0 0 Z " fill="#FFFFFF" transform="translate(24,56)"/>
<path d="M0 0 C0.66128906 0.11214844 1.32257812 0.22429688 2.00390625 0.33984375 C2.33390625 0.00984375 2.66390625 -0.32015625 3.00390625 -0.66015625 C9.35617339 -1.19066012 13.02197694 -0.17968962 18.37890625 3.15234375 C18.99378906 3.50876953 19.60867187 3.86519531 20.2421875 4.23242188 C23.28514521 6.04687697 25.01085639 7.35026896 27.00390625 10.33984375 C27.61324252 15.6207581 26.60102514 18.0547454 23.83984375 22.48046875 C21.08885752 28.59948484 24.91597753 37.44815707 26.48046875 43.51953125 C27.00390625 46.33984375 27.00390625 46.33984375 26.00390625 49.33984375 C23.99156127 47.93838921 21.99526516 46.52057234 20.00390625 45.08984375 C19.4315625 44.69410156 18.85921875 44.29835937 18.26953125 43.890625 C16.62890625 42.69921875 16.62890625 42.69921875 14.00390625 40.33984375 C14.00390625 39.01984375 14.00390625 37.69984375 14.00390625 36.33984375 C13.19179687 36.72849609 13.19179687 36.72849609 12.36328125 37.125 C10.00390625 37.33984375 10.00390625 37.33984375 7.26953125 35.4609375 C6.25384087 34.57832603 5.24909454 33.68300938 4.25390625 32.77734375 C3.1927347 31.85004007 2.13023096 30.92425871 1.06640625 30 C0.54820313 29.54512207 0.03 29.09024414 -0.50390625 28.62158203 C-3.53298767 26.01970417 -6.76281281 23.67921761 -9.99609375 21.33984375 C-8.8346669 16.98449306 -7.9190987 14.69364672 -3.99609375 12.33984375 C-7.55731665 11.28899109 -9.40015448 10.7628449 -12.99609375 11.33984375 C-17.11337239 14.27921327 -20.44678687 17.73593215 -23.99609375 21.33984375 C-26.75859411 22.72109393 -28.94340474 22.53063681 -31.99609375 22.33984375 C-33.99609375 20.33984375 -33.99609375 20.33984375 -34.43359375 17.52734375 C-33.84942364 13.27124723 -32.11360536 12.23775165 -28.99609375 9.33984375 C-28.06410156 8.4684375 -27.13210937 7.59703125 -26.171875 6.69921875 C-25.22699219 5.838125 -24.28210937 4.97703125 -23.30859375 4.08984375 C-22.35597656 3.2184375 -21.40335938 2.34703125 -20.421875 1.44921875 C-14.42628737 -3.76433571 -7.16336768 -1.6732752 0 0 Z " fill="#FFFFFF" transform="translate(40.99609375,23.66015625)"/>
<path d="M0 0 C3.08776034 2.0585069 4.56771464 3.53293156 5.625 7.12109375 C6.25094871 10.98763112 6.12289391 13.60963112 4.9375 17.375 C2.49739264 20.6809519 0.93017196 21.76272364 -3 23 C-7.74967614 23.27643618 -11.01980586 22.65346276 -15 20 C-17.65346276 16.01980586 -18.27643618 12.74967614 -18 8 C-16.76272364 4.06982804 -15.6809519 2.50260736 -12.375 0.0625 C-7.93553578 -1.3351091 -4.46319824 -1.31512287 0 0 Z " fill="#FFFFFF" transform="translate(73,4)"/>
<path d="M0 0 C2.5 0.3125 2.5 0.3125 5 1 C5.33 1.66 5.66 2.32 6 3 C4.02 4.32 2.04 5.64 0 7 C-1 6 -1 6 -1.125 3.5 C-1 1 -1 1 0 0 Z " fill="#FFFFFF" transform="translate(3,29)"/>
<path d="M0 0 C2.03833424 1.2739589 4.03852126 2.61061923 6 4 C6 4.66 6 5.32 6 6 C4.35 5.67 2.7 5.34 1 5 C0.67 3.35 0.34 1.7 0 0 Z " fill="#FFFFFF" transform="translate(60,84)"/>
</svg>
